<mxfile host="65bd71144e">
    <diagram id="F0W2uZ62XZT9mW7RIrrh" name="Page-1">
        <mxGraphModel dx="794" dy="1809" grid="1" gridSize="10" guides="1" tooltips="1" connect="1" arrows="1" fold="1" page="1" pageScale="1" pageWidth="850" pageHeight="1100" math="0" shadow="0">
            <root>
                <mxCell id="0"/>
                <mxCell id="1" parent="0"/>
                <mxCell id="8" value="Write new feature code" style="rounded=1;whiteSpace=wrap;html=1;" parent="1" vertex="1">
                    <mxGeometry x="280" y="-820" width="160" height="40" as="geometry"/>
                </mxCell>
                <mxCell id="81" style="edgeStyle=elbowEdgeStyle;html=1;" parent="1" source="8" target="121" edge="1">
                    <mxGeometry relative="1" as="geometry">
                        <mxPoint x="360" y="-610" as="sourcePoint"/>
                        <mxPoint x="360.1724137931035" y="-650" as="targetPoint"/>
                    </mxGeometry>
                </mxCell>
                <mxCell id="122" style="edgeStyle=elbowEdgeStyle;html=1;" parent="1" source="121" target="128" edge="1">
                    <mxGeometry relative="1" as="geometry">
                        <mxPoint x="360" y="-550" as="targetPoint"/>
                    </mxGeometry>
                </mxCell>
                <mxCell id="121" value="Build in PlatformIO test mode" style="rounded=1;whiteSpace=wrap;html=1;" parent="1" vertex="1">
                    <mxGeometry x="280" y="-750" width="160" height="40" as="geometry"/>
                </mxCell>
                <mxCell id="132" style="edgeStyle=elbowEdgeStyle;html=1;exitX=1;exitY=0.5;exitDx=0;exitDy=0;" parent="1" source="128" target="133" edge="1">
                    <mxGeometry relative="1" as="geometry">
                        <Array as="points">
                            <mxPoint x="600" y="-590"/>
                            <mxPoint x="470" y="-550"/>
                            <mxPoint x="600" y="-540"/>
                        </Array>
                    </mxGeometry>
                </mxCell>
                <mxCell id="213" style="edgeStyle=none;html=1;" parent="1" source="128" target="212" edge="1">
                    <mxGeometry relative="1" as="geometry"/>
                </mxCell>
                <mxCell id="128" value="" style="rhombus;whiteSpace=wrap;html=1;" parent="1" vertex="1">
                    <mxGeometry x="350" y="-600" width="20" height="40" as="geometry"/>
                </mxCell>
                <mxCell id="130" value="[compiling error]" style="text;html=1;strokeColor=none;fillColor=none;align=center;verticalAlign=middle;whiteSpace=wrap;rounded=0;" parent="1" vertex="1">
                    <mxGeometry x="380" y="-610" width="90" height="30" as="geometry"/>
                </mxCell>
                <mxCell id="134" style="edgeStyle=elbowEdgeStyle;html=1;" parent="1" source="133" target="121" edge="1">
                    <mxGeometry relative="1" as="geometry">
                        <Array as="points">
                            <mxPoint x="600" y="-620"/>
                        </Array>
                    </mxGeometry>
                </mxCell>
                <mxCell id="133" value="Check and fix compiling errors" style="rounded=1;whiteSpace=wrap;html=1;" parent="1" vertex="1">
                    <mxGeometry x="530" y="-660" width="160" height="40" as="geometry"/>
                </mxCell>
                <mxCell id="215" style="edgeStyle=none;html=1;" parent="1" source="212" target="214" edge="1">
                    <mxGeometry relative="1" as="geometry"/>
                </mxCell>
                <mxCell id="212" value="Commit with the branch name, feature name and description" style="rounded=1;whiteSpace=wrap;html=1;" parent="1" vertex="1">
                    <mxGeometry x="280" y="-500" width="160" height="40" as="geometry"/>
                </mxCell>
                <mxCell id="217" style="edgeStyle=none;html=1;" parent="1" source="214" target="216" edge="1">
                    <mxGeometry relative="1" as="geometry">
                        <mxPoint x="410" y="-290" as="targetPoint"/>
                    </mxGeometry>
                </mxCell>
                <mxCell id="214" value="Git push" style="rounded=1;whiteSpace=wrap;html=1;" parent="1" vertex="1">
                    <mxGeometry x="280" y="-420" width="160" height="40" as="geometry"/>
                </mxCell>
                <mxCell id="223" style="edgeStyle=none;html=1;" parent="1" source="216" target="220" edge="1">
                    <mxGeometry relative="1" as="geometry"/>
                </mxCell>
                <mxCell id="228" style="edgeStyle=orthogonalEdgeStyle;html=1;" parent="1" source="216" target="234" edge="1">
                    <mxGeometry relative="1" as="geometry">
                        <mxPoint x="360" y="-180" as="targetPoint"/>
                    </mxGeometry>
                </mxCell>
                <mxCell id="216" value="" style="rhombus;whiteSpace=wrap;html=1;" parent="1" vertex="1">
                    <mxGeometry x="350" y="-300" width="20" height="40" as="geometry"/>
                </mxCell>
                <mxCell id="224" style="edgeStyle=orthogonalEdgeStyle;html=1;" parent="1" source="220" target="214" edge="1">
                    <mxGeometry relative="1" as="geometry">
                        <Array as="points">
                            <mxPoint x="600" y="-400"/>
                        </Array>
                    </mxGeometry>
                </mxCell>
                <mxCell id="220" value="Fix push issues" style="rounded=1;whiteSpace=wrap;html=1;" parent="1" vertex="1">
                    <mxGeometry x="520" y="-300" width="160" height="40" as="geometry"/>
                </mxCell>
                <mxCell id="225" value="[push error]" style="text;html=1;strokeColor=none;fillColor=none;align=center;verticalAlign=middle;whiteSpace=wrap;rounded=0;" parent="1" vertex="1">
                    <mxGeometry x="380" y="-320" width="90" height="30" as="geometry"/>
                </mxCell>
                <mxCell id="234" value="" style="ellipse;html=1;shape=endState;fillColor=strokeColor;" vertex="1" parent="1">
                    <mxGeometry x="345" y="-210" width="30" height="30" as="geometry"/>
                </mxCell>
                <mxCell id="236" style="edgeStyle=none;html=1;" edge="1" parent="1" source="235" target="8">
                    <mxGeometry relative="1" as="geometry"/>
                </mxCell>
                <mxCell id="235" value="" style="ellipse;fillColor=strokeColor;" vertex="1" parent="1">
                    <mxGeometry x="350" y="-890" width="20" height="20" as="geometry"/>
                </mxCell>
                <mxCell id="239" value="[else]" style="text;html=1;strokeColor=none;fillColor=none;align=center;verticalAlign=middle;whiteSpace=wrap;rounded=0;" vertex="1" parent="1">
                    <mxGeometry x="370" y="-270" width="90" height="30" as="geometry"/>
                </mxCell>
                <mxCell id="241" value="[else]" style="text;html=1;strokeColor=none;fillColor=none;align=center;verticalAlign=middle;whiteSpace=wrap;rounded=0;" vertex="1" parent="1">
                    <mxGeometry x="370" y="-570" width="90" height="30" as="geometry"/>
                </mxCell>
            </root>
        </mxGraphModel>
    </diagram>
</mxfile>